<svg width="126" height="99" viewBox="0 0 126 99" fill="none" xmlns="http://www.w3.org/2000/svg">
    <g filter="url(#filter0_b_881_4362)">
        <path
            d="M18.6005 13.1746L50.3596 4.66477C61.9331 1.56366 70.3167 6.62263 73.5401 18.6527L82.3773 51.6333C85.6007 63.6634 80.8698 72.2364 69.2963 75.3375L37.5372 83.8473C25.9638 86.9484 17.6104 81.8814 14.3869 69.8513L5.54977 36.8707C2.32632 24.8406 7.02706 16.2757 18.6005 13.1746Z"
            fill="#364152" fill-opacity="0.36" />
        <path
            d="M50.489 5.14773L18.7299 13.6575C13.0383 15.1826 9.10145 18.0314 6.96437 21.9153C4.82525 25.8029 4.44358 30.8105 6.03273 36.7413L14.8699 69.7219C16.459 75.6527 19.2934 79.7986 23.0897 82.0957C26.8824 84.3907 31.7162 84.8894 37.4078 83.3644L69.1669 74.8546C74.8586 73.3295 78.8032 70.4785 80.9479 66.5922C83.0944 62.7025 83.4833 57.693 81.8943 51.7627L73.0572 18.7821C71.4682 12.8519 68.6266 8.708 64.8228 6.41264C61.0223 4.11932 56.1807 3.62265 50.489 5.14773Z"
            stroke="white" stroke-opacity="0.05" />
    </g>
    <g filter="url(#filter1_b_881_4362)">
        <mask id="path-3-inside-1_881_4362" fill="white">
            <path
                d="M81.4632 20.0098H44.7144C31.2832 20.0098 23.7207 27.5722 23.7207 41.0034V77.7916C23.7207 91.1441 31.2832 98.7853 44.7144 98.7853H81.5026C94.8944 98.7853 102.496 91.1441 102.496 77.7916V41.0034C102.496 27.5722 94.855 20.0098 81.4632 20.0098Z" />
        </mask>
        <path
            d="M81.4632 20.0098H44.7144C31.2832 20.0098 23.7207 27.5722 23.7207 41.0034V77.7916C23.7207 91.1441 31.2832 98.7853 44.7144 98.7853H81.5026C94.8944 98.7853 102.496 91.1441 102.496 77.7916V41.0034C102.496 27.5722 94.855 20.0098 81.4632 20.0098Z"
            fill="url(#paint0_linear_881_4362)" />
        <path
            d="M81.4632 19.0098H44.7144V21.0098H81.4632V19.0098ZM44.7144 19.0098C37.8145 19.0098 32.2811 20.9554 28.4737 24.7628C24.6663 28.5702 22.7207 34.1035 22.7207 41.0034H24.7207C24.7207 34.4722 26.5563 29.5086 29.8879 26.177C33.2196 22.8454 38.1831 21.0098 44.7144 21.0098V19.0098ZM22.7207 41.0034V77.7916H24.7207V41.0034H22.7207ZM22.7207 77.7916C22.7207 84.6536 24.667 90.1856 28.4728 94.0018C32.2789 97.8185 37.8117 99.7853 44.7144 99.7853V97.7853C38.1858 97.7853 33.2218 95.9316 29.8889 92.5895C26.5556 89.247 24.7207 84.2822 24.7207 77.7916H22.7207ZM44.7144 99.7853H81.5026V97.7853H44.7144V99.7853ZM81.5026 99.7853C88.3863 99.7853 93.9184 97.8181 97.7289 94.0023C101.539 90.1867 103.496 84.6549 103.496 77.7916H101.496C101.496 84.2808 99.6523 89.2459 96.3138 92.589C92.9755 95.9319 88.0107 97.7853 81.5026 97.7853V99.7853ZM103.496 77.7916V41.0034H101.496V77.7916H103.496ZM103.496 41.0034C103.496 34.1007 101.529 28.5676 97.7073 24.7613C93.8859 20.9557 88.344 19.0098 81.4632 19.0098V21.0098C87.9742 21.0098 92.9488 22.8451 96.296 26.1785C99.6425 29.5112 101.496 34.4749 101.496 41.0034H103.496Z"
            fill="white" fill-opacity="0.05" mask="url(#path-3-inside-1_881_4362)" />
    </g>
    <path fill-rule="evenodd" clip-rule="evenodd"
        d="M64.997 43.2423C63.7611 42.9004 62.4556 42.9004 61.2197 43.2423C60.5807 43.4191 59.9265 43.7482 59.0367 44.3589C58.134 44.9785 57.0604 45.8364 55.5599 47.0368L52.2266 49.7035C50.3347 51.217 49.5789 51.8351 49.04 52.5786C48.542 53.2656 48.1714 54.0365 47.9461 54.8546C47.7022 55.7398 47.6917 56.7161 47.6917 59.139V62.7306C47.6917 65.0848 47.6927 66.7753 47.8011 68.1022C47.9083 69.4145 48.1143 70.2607 48.4637 70.9464C49.1428 72.2792 50.2264 73.3628 51.5593 74.0419C52.245 74.3913 53.0912 74.5974 54.4035 74.7046C55.7304 74.813 57.4208 74.814 59.775 74.814H66.4417C68.7959 74.814 70.4863 74.813 71.8132 74.7046C73.1255 74.5974 73.9717 74.3913 74.6575 74.0419C75.9903 73.3628 77.0739 72.2792 77.753 70.9464C78.1024 70.2607 78.3084 69.4145 78.4156 68.1022C78.524 66.7753 78.525 65.0848 78.525 62.7306V59.139C78.525 56.7161 78.5145 55.7398 78.2706 54.8546C78.0453 54.0365 77.6747 53.2656 77.1767 52.5786C76.6378 51.8351 75.882 51.217 73.9901 49.7035L70.6567 47.0368C69.1563 45.8364 68.0827 44.9785 67.18 44.3589C66.2902 43.7482 65.636 43.4191 64.997 43.2423ZM60.5531 40.8328C62.2252 40.3702 63.9915 40.3702 65.6636 40.8328C66.6729 41.112 67.586 41.6054 68.5947 42.2977C69.5818 42.9753 70.7263 43.8909 72.1803 45.0541L75.5518 47.7513C75.6023 47.7917 75.6523 47.8316 75.7016 47.8711C77.3962 49.2264 78.4392 50.0606 79.2008 51.1113C79.8746 52.0408 80.3759 53.0838 80.6808 54.1906C81.0255 55.4417 81.0253 56.7772 81.025 58.9471C81.025 59.0103 81.025 59.0743 81.025 59.139V62.7866C81.025 65.0728 81.025 66.8652 80.9073 68.3057C80.7875 69.7726 80.5394 70.9845 79.9805 72.0814C79.0617 73.8846 77.5956 75.3507 75.7924 76.2694C74.6955 76.8283 73.4837 77.0764 72.0168 77.1963C70.5762 77.314 68.7838 77.314 66.4977 77.314H59.7191C57.4329 77.314 55.6405 77.314 54.1999 77.1963C52.733 77.0764 51.5212 76.8283 50.4243 76.2694C48.6211 75.3507 47.155 73.8846 46.2362 72.0814C45.6773 70.9845 45.4292 69.7726 45.3094 68.3057C45.1917 66.8652 45.1917 65.0728 45.1917 62.7866L45.1917 59.139C45.1917 59.0743 45.1917 59.0103 45.1917 58.9471C45.1914 56.7772 45.1912 55.4417 45.5359 54.1906C45.8408 53.0838 46.3421 52.0408 47.0159 51.1113C47.7775 50.0606 48.8205 49.2264 50.515 47.8711C50.5644 47.8316 50.6144 47.7917 50.6649 47.7513L54.0364 45.0541C55.4904 43.8909 56.6349 42.9753 57.622 42.2977C58.6307 41.6054 59.5438 41.112 60.5531 40.8328ZM56.8584 66.064C56.8584 65.3736 57.418 64.814 58.1084 64.814H68.1084C68.7987 64.814 69.3584 65.3736 69.3584 66.064C69.3584 66.7543 68.7987 67.314 68.1084 67.314H58.1084C57.418 67.314 56.8584 66.7543 56.8584 66.064Z"
        fill="#768393" />
    <defs>
        <filter id="filter0_b_881_4362" x="-27.4427" y="-28.2275" width="142.809" height="144.966"
            filterUnits="userSpaceOnUse" color-interpolation-filters="sRGB">
            <feFlood flood-opacity="0" result="BackgroundImageFix" />
            <feGaussianBlur in="BackgroundImageFix" stdDeviation="16" />
            <feComposite in2="SourceAlpha" operator="in" result="effect1_backgroundBlur_881_4362" />
            <feBlend mode="normal" in="SourceGraphic" in2="effect1_backgroundBlur_881_4362"
                result="shape" />
        </filter>
        <filter id="filter1_b_881_4362" x="-8.2793" y="-11.9902" width="142.776" height="142.775"
            filterUnits="userSpaceOnUse" color-interpolation-filters="sRGB">
            <feFlood flood-opacity="0" result="BackgroundImageFix" />
            <feGaussianBlur in="BackgroundImageFix" stdDeviation="16" />
            <feComposite in2="SourceAlpha" operator="in" result="effect1_backgroundBlur_881_4362" />
            <feBlend mode="normal" in="SourceGraphic" in2="effect1_backgroundBlur_881_4362"
                result="shape" />
        </filter>
        <linearGradient id="paint0_linear_881_4362" x1="-5.29996" y1="-21.0643" x2="83.0865"
            y2="98.7853" gradientUnits="userSpaceOnUse">
            <stop stop-color="#364152" />
            <stop offset="1" stop-color="#1B1F28" />
        </linearGradient>
    </defs>
</svg>
    