<svg width="19" height="18" viewBox="0 0 19 18" fill="none" xmlns="http://www.w3.org/2000/svg">
<path id="Vector" fill-rule="evenodd" clip-rule="evenodd" d="M9.08332 0.041626H9.05585C7.71826 0.0416229 6.67714 0.0416205 5.84124 0.108045C4.99262 0.175479 4.30219 0.314288 3.67878 0.621717C2.56823 1.16938 1.66941 2.06819 1.12175 3.17875C0.814318 3.80216 0.675509 4.49259 0.608075 5.34121C0.541651 6.17711 0.541653 7.21823 0.541657 8.55582V8.58329V9.33329V9.36158C0.541653 10.7378 0.541651 11.8089 0.611853 12.6682C0.683132 13.5406 0.829886 14.2494 1.15474 14.887C1.69403 15.9454 2.55455 16.8059 3.61296 17.3452C4.25053 17.6701 4.95936 17.8168 5.83177 17.8881C5.85743 17.8902 5.88328 17.8922 5.90932 17.8942C6.95851 17.9755 8.0143 17.9687 9.06785 17.962C9.32413 17.9603 9.58028 17.9587 9.83616 17.9583H9.91666H9.94411C11.2817 17.9583 12.3228 17.9583 13.1587 17.8919C14.0074 17.8244 14.6978 17.6856 15.3212 17.3782C16.4318 16.8305 17.3306 15.9317 17.8782 14.8212C18.1857 14.1978 18.3245 13.5073 18.3919 12.6587C18.4583 11.8228 18.4583 10.7817 18.4583 9.44408V9.41663V8.99996C18.4583 8.65478 18.1785 8.37496 17.8333 8.37496C17.4881 8.37496 17.2083 8.65478 17.2083 8.99996V9.41663C17.2083 10.7875 17.2079 11.7791 17.1458 12.5597C17.1452 12.5675 17.1446 12.5753 17.144 12.583L16.205 11.6441C15.5678 11.0069 15.2492 10.6883 14.8841 10.5631C14.5338 10.443 14.1534 10.443 13.8031 10.5631C13.438 10.6883 13.1194 11.0069 12.4822 11.6441C12.1678 11.9585 12.0106 12.1156 11.8301 12.1784C11.6569 12.2386 11.4686 12.24 11.2945 12.1823C11.1131 12.1223 10.9536 11.9674 10.6346 11.6577L8.87857 9.9528C8.21775 9.31121 7.88734 8.99042 7.50926 8.87188C7.17662 8.76759 6.81966 8.77023 6.4886 8.87942C6.11231 9.00353 5.78667 9.32917 5.1354 9.98044L5.1354 9.98045L1.92914 13.1867C1.89983 12.9992 1.87628 12.7938 1.8577 12.5664C1.79214 11.764 1.79166 10.7437 1.79166 9.33329V8.58329C1.79166 7.21244 1.79212 6.22084 1.85415 5.44022C1.91562 4.6666 2.03463 4.15382 2.24284 3.73161C2.6688 2.86785 3.36788 2.16877 4.23164 1.74281C4.65385 1.5346 5.16663 1.41559 5.94025 1.35412C6.72087 1.29209 7.71247 1.29163 9.08332 1.29163H9.49999C9.84517 1.29163 10.125 1.0118 10.125 0.666626C10.125 0.321448 9.84517 0.041626 9.49999 0.041626H9.08332ZM15.125 1.49996C15.125 1.15478 14.8452 0.874959 14.5 0.874959C14.1548 0.874959 13.875 1.15478 13.875 1.49996V3.37496H12C11.6548 3.37496 11.375 3.65478 11.375 3.99996C11.375 4.34514 11.6548 4.62496 12 4.62496H13.875V6.49996C13.875 6.84514 14.1548 7.12496 14.5 7.12496C14.8452 7.12496 15.125 6.84514 15.125 6.49996V4.62496H17C17.3452 4.62496 17.625 4.34514 17.625 3.99996C17.625 3.65478 17.3452 3.37496 17 3.37496H15.125V1.49996Z" fill="white"/>
</svg>
