<svg viewBox="0 0 24 24" xmlns="http://www.w3.org/2000/svg"><path fill-rule="evenodd" clip-rule="evenodd" d="M11.565 1.249h.87c1.65 0 2.936 0 3.968.084 1.045.087 1.897.262 2.662.652a6.75 6.75 0 0 1 2.949 2.949c.39.765.566 1.615.651 2.662.086 1.032.086 2.317.086 3.969v.867c0 1.651 0 2.937-.084 3.969-.087 1.045-.262 1.897-.652 2.662a6.75 6.75 0 0 1-2.949 2.949c-.765.39-1.617.566-2.662.651-1.032.086-2.317.086-3.969.086h-.867c-1.651 0-2.937 0-3.969-.084-1.045-.087-1.897-.262-2.662-.652a6.75 6.75 0 0 1-2.949-2.949c-.39-.765-.566-1.617-.651-2.662-.088-1.032-.088-2.317-.088-3.969v-.867c0-1.651 0-2.937.086-3.969.086-1.047.261-1.897.651-2.662a6.75 6.75 0 0 1 2.949-2.949c.765-.39 1.617-.566 2.662-.652 1.033-.085 2.318-.085 3.97-.085m-3.845 1.58c-.954.078-1.585.229-2.104.494a5.25 5.25 0 0 0-2.295 2.295c-.262.517-.414 1.149-.492 2.103-.078.963-.08 2.187-.08 3.879v.801c0 1.692 0 2.916.08 3.879.078.954.229 1.585.494 2.104a5.25 5.25 0 0 0 2.295 2.295c.517.262 1.149.414 2.103.492.963.078 2.187.08 3.879.08h.801c1.692 0 2.916 0 3.879-.08.954-.078 1.585-.229 2.104-.494a5.25 5.25 0 0 0 2.295-2.295c.262-.517.414-1.149.492-2.103.078-.963.08-2.187.08-3.879v-.801c0-1.692 0-2.916-.08-3.879-.078-.954-.229-1.585-.494-2.104a5.25 5.25 0 0 0-2.295-2.295c-.517-.262-1.149-.414-2.103-.492-.963-.078-2.187-.08-3.879-.08h-.801c-1.692 0-2.916 0-3.879.08m-.72 4.421a.75.75 0 0 1 .75.75v8.001a.75.75 0 0 1-1.5 0V8a.75.75 0 0 1 .75-.75m9.999 1.001a.75.75 0 0 1 .75.75v7a.75.75 0 1 1-1.5 0V9a.75.75 0 0 1 .75-.75m-5.001 2a.75.75 0 0 1 .75.75v5.001a.75.75 0 0 1-1.5 0V11a.75.75 0 0 1 .75-.75"/></svg>