<svg xmlns="http://www.w3.org/2000/svg" width="24" height="24" viewBox="0 0 24 24" fill="none">
    <path fill-rule="evenodd" clip-rule="evenodd" d="M12 1.24988C7.5566 1.24988 4.56885 4.73394 4.56885 7.94499C4.56885 8.76877 4.464 9.3456 4.32088 9.78917C4.17732 10.2342 3.986 10.5761 3.76558 10.945L3.69634 11.0603C3.49524 11.3945 3.26179 11.7824 3.08361 12.2486C2.87812 12.7863 2.75 13.4101 2.75 14.2204C2.75 14.242 2.75094 14.2637 2.75281 14.2852C2.82571 15.1253 3.07461 15.8619 3.54845 16.4753C4.02031 17.0861 4.67201 17.5187 5.45762 17.8255C6.99217 18.425 9.18431 18.5975 12 18.5975C14.817 18.5975 17.0092 18.4222 18.5437 17.8212C19.3291 17.5136 19.9804 17.0808 20.452 16.4709C20.9256 15.8582 21.1745 15.123 21.2472 14.2852C21.2491 14.2637 21.25 14.242 21.25 14.2204C21.25 13.4101 21.1219 12.7863 20.9164 12.2486C20.7382 11.7824 20.5048 11.3945 20.3037 11.0604L20.3037 11.0603L20.2344 10.945C20.014 10.5761 19.8227 10.2342 19.6791 9.78917C19.536 9.3456 19.4312 8.76877 19.4312 7.94499C19.4312 4.73394 16.4434 1.24988 12 1.24988ZM6.06885 7.94499C6.06885 5.59409 8.35295 2.74988 12 2.74988C15.6471 2.74988 17.9312 5.59409 17.9312 7.94499C17.9312 8.90134 18.0537 9.6363 18.2516 10.2497C18.449 10.8618 18.7124 11.3222 18.9467 11.7143L19.0148 11.8279C19.2222 12.1738 19.387 12.4485 19.5152 12.7841C19.6484 13.1327 19.7466 13.5647 19.7499 14.1875C19.6935 14.785 19.5233 15.2196 19.2652 15.5534C19.0006 15.8958 18.6 16.1882 17.9967 16.4245C16.7541 16.9112 14.8223 17.0975 12 17.0975C9.17746 17.0975 7.24608 16.9138 6.00342 16.4284C5.40043 16.1928 5.00011 15.9008 4.73548 15.5582C4.47738 15.2241 4.30676 14.7882 4.25009 14.1875C4.25342 13.5647 4.35156 13.1327 4.48478 12.7841C4.61303 12.4485 4.77775 12.1739 4.98521 11.8279L4.98522 11.8279L5.05327 11.7143C5.28756 11.3222 5.55096 10.8618 5.74842 10.2497C5.94634 9.6363 6.06885 8.90134 6.06885 7.94499ZM10.0774 20.356C9.80056 20.0479 9.32636 20.0226 9.01826 20.2994C8.71015 20.5763 8.68481 21.0505 8.96166 21.3586C10.6397 23.2261 13.287 23.2015 14.9462 21.3592C15.2234 21.0514 15.1986 20.5772 14.8908 20.3C14.583 20.0228 14.1087 20.0476 13.8316 20.3554C12.7624 21.5425 11.1537 21.5538 10.0774 20.356Z" fill="#EEF2F6"/>
</svg>