<svg xmlns="http://www.w3.org/2000/svg" width="24" height="24" viewBox="0 0 24 24" fill="none">
  <path fill-rule="evenodd" clip-rule="evenodd"
    d="M15.6852 1.79492C15.3563 1.75162 14.9526 1.75 13.9999 1.75H9.99994C9.00327 1.75 8.15796 2.39803 7.86236 3.29572C8.53296 3.24999 9.35211 3.25 10.3669 3.25H11.6329C12.7251 3.25 13.5906 3.24999 14.2882 3.30699C15.0016 3.36528 15.6052 3.48689 16.1564 3.76772C17.0502 4.22312 17.7768 4.94978 18.2322 5.84355C18.5131 6.39472 18.6347 6.99835 18.693 7.71174C18.7499 8.40936 18.7499 9.27485 18.7499 10.367V22C18.7499 22.2674 18.6076 22.5145 18.3764 22.6487C18.1451 22.7829 17.86 22.7838 17.6278 22.6512L15.3908 21.3729C13.6113 20.356 12.8616 19.9375 12.0823 19.7733C11.3686 19.6229 10.6313 19.6229 9.91755 19.7733C9.13826 19.9375 8.3886 20.356 6.60911 21.3729L4.37204 22.6512C4.13992 22.7838 3.85473 22.7829 3.62349 22.6487C3.39226 22.5145 3.24994 22.2674 3.24994 22L3.24994 10.367C3.24993 9.27486 3.24993 8.40936 3.30693 7.71174C3.36521 6.99835 3.48682 6.39472 3.76766 5.84355C4.22306 4.94978 4.94971 4.22312 5.84348 3.76772C5.98292 3.69668 6.12572 3.63582 6.2728 3.5836C6.47995 1.7085 8.06962 0.250004 9.99994 0.250004L14.0701 0.250002C14.9323 0.249961 15.4418 0.249937 15.881 0.307751C18.9099 0.70652 21.2934 3.09 21.6922 6.11895C21.75 6.55809 21.75 7.06762 21.7499 7.92986L21.7499 19C21.7499 19.4142 21.4142 19.75 20.9999 19.75C20.5857 19.75 20.2499 19.4142 20.2499 19V8C20.2499 7.04732 20.2483 6.64362 20.205 6.31474C19.8949 3.95889 18.0411 2.10507 15.6852 1.79492ZM7.83382 4.80201C7.21319 4.85272 6.82894 4.9491 6.52447 5.10423C5.91294 5.41582 5.41576 5.91301 5.10417 6.52454C4.94903 6.82901 4.85265 7.21326 4.80195 7.83389C4.75052 8.46327 4.74994 9.26752 4.74994 10.4V20.7076L5.8649 20.0705C5.90666 20.0466 5.948 20.023 5.98891 19.9996C7.60622 19.0752 8.57014 18.5243 9.6083 18.3055C10.526 18.1122 11.4739 18.1122 12.3916 18.3055C13.4297 18.5243 14.3937 19.0752 16.011 19.9996C16.0519 20.023 16.0932 20.0466 16.135 20.0705L17.2499 20.7076V10.4C17.2499 9.26752 17.2494 8.46327 17.1979 7.83389C17.1472 7.21326 17.0508 6.82901 16.8957 6.52454C16.5841 5.91301 16.0869 5.41582 15.4754 5.10423C15.1709 4.9491 14.7867 4.85272 14.1661 4.80201C13.5367 4.75059 12.7324 4.75 11.5999 4.75H10.3999C9.26746 4.75 8.4632 4.75059 7.83382 4.80201Z"
    fill="#FCFCFD" />
</svg>