<svg xmlns="http://www.w3.org/2000/svg" width="24" height="24" viewBox="0 0 24 24" fill="none">
  <path fill-rule="evenodd" clip-rule="evenodd"
    d="M10.367 1.25H13.633C14.7251 1.24999 15.5906 1.24999 16.2883 1.30699C17.0017 1.36527 17.6053 1.48688 18.1565 1.76772C19.0502 2.22312 19.7769 2.94978 20.2323 3.84355C20.5131 4.39472 20.6347 4.99834 20.693 5.71173C20.75 6.40935 20.75 7.27484 20.75 8.36698V17C20.75 17.0322 20.75 17.064 20.75 17.0953C20.75 17.1559 20.75 17.2149 20.75 17.2723V17.5C20.75 17.5092 20.7498 17.5183 20.7495 17.5275C20.7471 18.1267 20.7334 18.5512 20.6587 18.9267C20.2839 20.811 18.811 22.2839 16.9267 22.6587C16.4668 22.7502 15.9334 22.7501 15.0953 22.75C15.064 22.75 15.0322 22.75 15 22.75H6.5C4.70507 22.75 3.25 21.2949 3.25 19.5L3.25 8.367C3.24999 7.27485 3.24999 6.40936 3.30699 5.71173C3.36527 4.99834 3.48688 4.39472 3.76772 3.84355C4.22312 2.94978 4.94978 2.22312 5.84355 1.76772C6.39472 1.48688 6.99834 1.36527 7.71173 1.30699C8.40936 1.24999 9.27486 1.24999 10.367 1.25ZM4.75 19.5C4.75 20.4665 5.5335 21.25 6.5 21.25H15C15.9653 21.25 16.3384 21.2464 16.634 21.1876C17.9233 20.9311 18.9311 19.9233 19.1876 18.634C19.2279 18.4312 19.2423 18.1919 19.2473 17.75H6.5C5.5335 17.75 4.75 18.5335 4.75 19.5ZM19.25 16.25V8.4C19.25 7.26752 19.2494 6.46327 19.198 5.83388C19.1473 5.21325 19.0509 4.829 18.8958 4.52453C18.5842 3.913 18.087 3.41582 17.4755 3.10423C17.171 2.94909 16.7867 2.85271 16.1661 2.80201C15.5367 2.75058 14.7325 2.75 13.6 2.75H10.4C9.26752 2.75 8.46326 2.75058 7.83388 2.80201C7.21325 2.85271 6.829 2.94909 6.52453 3.10423C5.913 3.41582 5.41582 3.913 5.10423 4.52453C4.94909 4.829 4.85271 5.21325 4.80201 5.83388C4.75058 6.46327 4.75 7.26752 4.75 8.4V16.7609C5.25515 16.4375 5.85568 16.25 6.5 16.25H19.25ZM8.25 7C8.25 6.58579 8.58579 6.25 9 6.25H15C15.4142 6.25 15.75 6.58579 15.75 7C15.75 7.41421 15.4142 7.75 15 7.75H9C8.58579 7.75 8.25 7.41421 8.25 7Z"
    fill="#FCFCFD" />
</svg>