<svg xmlns="http://www.w3.org/2000/svg" width="16" height="16" viewBox="0 0 16 16" fill="none">
    <g clip-path="url(#clip0_702_112336)">
        <path fill-rule="evenodd" clip-rule="evenodd"
            d="M5.33337 0.166656C5.60952 0.166656 5.83337 0.390514 5.83337 0.666656V0.849314C6.36768 0.83332 6.9864 0.833321 7.71075 0.833323H8.28933C9.01369 0.833321 9.63241 0.83332 10.1667 0.849314V0.666656C10.1667 0.390514 10.3906 0.166656 10.6667 0.166656C10.9429 0.166656 11.1667 0.390514 11.1667 0.666656V0.911286C11.7602 0.974909 12.2573 1.09333 12.7097 1.32379C13.5564 1.75522 14.2448 2.44364 14.6762 3.29037C14.9361 3.80042 15.0535 4.36749 15.1105 5.06542C15.1667 5.7528 15.1667 6.60973 15.1667 7.71068V8.2893C15.1667 9.39025 15.1667 10.2472 15.1105 10.9346C15.0535 11.6325 14.9361 12.1996 14.6762 12.7096C14.2448 13.5563 13.5564 14.2448 12.7097 14.6762C12.1996 14.9361 11.6325 15.0535 10.9346 15.1105C10.2472 15.1667 9.3903 15.1667 8.28935 15.1667H7.71073C6.60978 15.1667 5.75285 15.1667 5.06547 15.1105C4.36754 15.0535 3.80047 14.9361 3.29042 14.6762C2.44369 14.2448 1.75527 13.5563 1.32384 12.7096C1.06396 12.1996 0.946554 11.6325 0.889531 10.9346C0.833369 10.2472 0.833371 9.39024 0.833374 8.28928V7.7107C0.833371 6.60974 0.833369 5.75281 0.889531 5.06542C0.946554 4.36749 1.06396 3.80042 1.32384 3.29037C1.75527 2.44364 2.44369 1.75522 3.29042 1.32379C3.74274 1.09333 4.23989 0.974909 4.83337 0.911286V0.666656C4.83337 0.390514 5.05723 0.166656 5.33337 0.166656ZM4.83337 1.91788C4.3665 1.97546 4.0298 2.06938 3.74441 2.2148C3.08584 2.55036 2.55041 3.08579 2.21485 3.74436C2.03876 4.08995 1.93818 4.51076 1.88621 5.14685C1.83376 5.78877 1.83337 6.60497 1.83337 7.73332V8.26666C1.83337 9.39501 1.83376 10.2112 1.88621 10.8531C1.93818 11.4892 2.03876 11.91 2.21485 12.2556C2.55041 12.9142 3.08584 13.4496 3.74441 13.7852C4.09 13.9613 4.51081 14.0619 5.1469 14.1138C5.78882 14.1663 6.60502 14.1667 7.73337 14.1667H8.26671C9.39506 14.1667 10.2113 14.1663 10.8532 14.1138C11.4893 14.0619 11.9101 13.9613 12.2557 13.7852C12.9142 13.4496 13.4497 12.9142 13.7852 12.2556C13.9613 11.91 14.0619 11.4892 14.1139 10.8531C14.1663 10.2112 14.1667 9.39501 14.1667 8.26666V7.73332C14.1667 6.60497 14.1663 5.78877 14.1139 5.14685C14.0619 4.51076 13.9613 4.08995 13.7852 3.74436C13.4497 3.08579 12.9142 2.55036 12.2557 2.2148C11.9703 2.06938 11.6336 1.97546 11.1667 1.91788V2.66666C11.1667 2.9428 10.9429 3.16666 10.6667 3.16666C10.3906 3.16666 10.1667 2.9428 10.1667 2.66666V1.84973C9.64725 1.8335 9.02803 1.83332 8.26671 1.83332H7.73337C6.97205 1.83332 6.35283 1.8335 5.83337 1.84973V2.66666C5.83337 2.9428 5.60952 3.16666 5.33337 3.16666C5.05723 3.16666 4.83337 2.9428 4.83337 2.66666V1.91788ZM3.83337 5.33332C3.83337 5.05718 4.05723 4.83332 4.33337 4.83332H11.6667C11.9429 4.83332 12.1667 5.05718 12.1667 5.33332C12.1667 5.60947 11.9429 5.83332 11.6667 5.83332H4.33337C4.05723 5.83332 3.83337 5.60947 3.83337 5.33332ZM4.16671 8.33332C4.16671 7.87309 4.5398 7.49999 5.00004 7.49999C5.46028 7.49999 5.83337 7.87309 5.83337 8.33332C5.83337 8.79356 5.46028 9.16666 5.00004 9.16666C4.5398 9.16666 4.16671 8.79356 4.16671 8.33332ZM7.16671 8.33332C7.16671 7.87309 7.5398 7.49999 8.00004 7.49999C8.46028 7.49999 8.83337 7.87309 8.83337 8.33332C8.83337 8.79356 8.46028 9.16666 8.00004 9.16666C7.5398 9.16666 7.16671 8.79356 7.16671 8.33332ZM10.1667 8.33332C10.1667 7.87309 10.5398 7.49999 11 7.49999C11.4603 7.49999 11.8334 7.87309 11.8334 8.33332C11.8334 8.79356 11.4603 9.16666 11 9.16666C10.5398 9.16666 10.1667 8.79356 10.1667 8.33332ZM4.16671 11C4.16671 10.5398 4.5398 10.1667 5.00004 10.1667C5.46028 10.1667 5.83337 10.5398 5.83337 11C5.83337 11.4602 5.46028 11.8333 5.00004 11.8333C4.5398 11.8333 4.16671 11.4602 4.16671 11ZM7.16671 11C7.16671 10.5398 7.5398 10.1667 8.00004 10.1667C8.46028 10.1667 8.83337 10.5398 8.83337 11C8.83337 11.4602 8.46028 11.8333 8.00004 11.8333C7.5398 11.8333 7.16671 11.4602 7.16671 11ZM10.1667 11C10.1667 10.5398 10.5398 10.1667 11 10.1667C11.4603 10.1667 11.8334 10.5398 11.8334 11C11.8334 11.4602 11.4603 11.8333 11 11.8333C10.5398 11.8333 10.1667 11.4602 10.1667 11Z"
        />
    </g>
    <defs>
        <clipPath id="clip0_702_112336">
            <rect width="16" height="16" fill="white" />
        </clipPath>
    </defs>
</svg>