<svg xmlns="http://www.w3.org/2000/svg" width="20" height="20" viewBox="0 0 20 20" fill="none">
    <path d="M9.99999 9.16669V5.83335M10.4167 12.0834C10.4167 12.3135 10.2301 12.5 9.99999 12.5C9.76987 12.5 9.58332 12.3135 9.58332 12.0834M10.4167 12.0834C10.4167 11.8532 10.2301 11.6667 9.99999 11.6667C9.76987 11.6667 9.58332 11.8532 9.58332 12.0834M10.4167 12.0834H9.58332M15.597 17.5249V17.5249C16.3303 17.9649 16.6969 18.1848 16.9956 18.2059C17.4966 18.2411 17.9701 17.973 18.1977 17.5252C18.3333 17.2583 18.3333 16.8308 18.3333 15.9757V8.33335C18.3333 5.9998 18.3333 4.83303 17.8792 3.94173C17.4797 3.15772 16.8423 2.5203 16.0583 2.12083C15.167 1.66669 14.0002 1.66669 11.6667 1.66669H8.33332C5.99977 1.66669 4.83299 1.66669 3.9417 2.12083C3.15769 2.5203 2.52027 3.15772 2.1208 3.94173C1.66666 4.83303 1.66666 5.9998 1.66666 8.33335V10C1.66666 12.3336 1.66666 13.5003 2.1208 14.3916C2.52027 15.1757 3.15769 15.8131 3.9417 16.2125C4.83299 16.6667 5.99977 16.6667 8.33332 16.6667H12.4985C13.0086 16.6667 13.2636 16.6667 13.5128 16.6968C13.9268 16.7469 14.331 16.8588 14.7118 17.0289C14.941 17.1313 15.1597 17.2625 15.597 17.5249Z" stroke="white" stroke-width="1.25" stroke-linecap="round" stroke-linejoin="round"/>
</svg>