<svg viewBox="0 0 24 24" xmlns="http://www.w3.org/2000/svg"><path fill-rule="evenodd" clip-rule="evenodd" d="M9.966 1.249h4.068c1.371 0 2.446 0 3.31.071.88.072 1.608.222 2.265.556a5.75 5.75 0 0 1 2.514 2.513c.335.66.485 1.386.555 2.265.072.865.072 1.941.072 3.312V19.2c0 .489 0 .895-.022 1.218s-.071.655-.222.954a2.25 2.25 0 0 1-2.165 1.224c-.333-.022-.642-.152-.93-.3a19 19 0 0 1-1.057-.608l-.024-.015c-.54-.323-.758-.453-.981-.552a4.2 4.2 0 0 0-1.224-.339c-.243-.03-.498-.03-1.127-.03H9.966c-1.371 0-2.446 0-3.31-.072-.88-.072-1.608-.22-2.265-.555a5.75 5.75 0 0 1-2.516-2.515c-.335-.657-.485-1.385-.555-2.265-.072-.864-.072-1.94-.072-3.312V9.966c0-1.371 0-2.446.071-3.31.072-.88.222-1.608.556-2.265a5.75 5.75 0 0 1 2.514-2.516c.66-.335 1.386-.485 2.265-.555.867-.072 1.941-.072 3.313-.072m-3.19 1.568c-.788.065-1.294.188-1.707.398A4.25 4.25 0 0 0 3.213 5.07c-.21.413-.333.919-.398 1.707-.065.795-.066 1.811-.066 3.224V12c0 1.413 0 2.427.066 3.224.065.788.188 1.294.398 1.706a4.26 4.26 0 0 0 1.857 1.859c.413.21.919.333 1.707.398.795.065 1.811.065 3.224.065h5.046c.566 0 .915 0 1.26.042.57.069 1.128.225 1.653.459.317.141.615.32 1.101.61l.042.026c.45.27.753.452.99.573.24.123.33.138.355.14a.75.75 0 0 0 .72-.408c.012-.022.045-.108.063-.377.018-.265.019-.619.019-1.143V10c0-1.413 0-2.427-.066-3.224-.065-.788-.188-1.294-.398-1.707a4.25 4.25 0 0 0-1.857-1.857c-.413-.21-.919-.333-1.707-.398-.795-.065-1.811-.066-3.224-.066H10c-1.413 0-2.427 0-3.224.066"/></svg>