<svg xmlns="http://www.w3.org/2000/svg" width="16" height="16" viewBox="0 0 16 16" fill="none">
  <path d="M5.1001 0.833313C3.60663 0.833313 2.85989 0.833313 2.28946 1.12396C1.78769 1.37962 1.37975 1.78757 1.12408 2.28934C0.833435 2.85977 0.833435 3.60651 0.833435 5.09998V6.89998C0.833435 8.39345 0.833435 9.14019 1.12408 9.71062C1.37975 10.2124 1.78769 10.6203 2.28946 10.876C2.85989 11.1666 3.60663 11.1666 5.1001 11.1666H6.9001C8.39357 11.1666 9.14031 11.1666 9.71074 10.876C10.2125 10.6203 10.6205 10.2124 10.8761 9.71062C11.1668 9.14019 11.1668 8.39345 11.1668 6.89998V5.09998C11.1668 3.60651 11.1668 2.85977 10.8761 2.28934C10.6205 1.78757 10.2125 1.37962 9.71074 1.12396C9.14031 0.833313 8.39357 0.833313 6.9001 0.833313H5.1001Z" fill="#9AA4B2"/>
  <path d="M12 4.83331V6.66665C12 8.53349 12 9.46691 11.6367 10.1799C11.3171 10.8072 10.8072 11.3171 10.18 11.6367C9.46695 12 8.53353 12 6.66669 12H4.83343C4.83343 12.4644 4.83343 12.6967 4.8623 12.8913C5.03465 14.0531 5.94694 14.9654 7.10882 15.1378C7.3034 15.1666 7.53563 15.1666 8.0001 15.1666H10.9001C12.3936 15.1666 13.1403 15.1666 13.7107 14.876C14.2125 14.6203 14.6205 14.2124 14.8761 13.7106C15.1668 13.1402 15.1668 12.3935 15.1668 10.9V8.00006C15.1668 7.53552 15.1668 7.30324 15.1379 7.10863C14.9655 5.9468 14.0533 5.03456 12.8914 4.86219C12.6968 4.83331 12.4646 4.83331 12 4.83331Z" fill="#9AA4B2"/>
</svg>