<svg xmlns="http://www.w3.org/2000/svg" width="20" height="20" viewBox="0 0 20 20" fill="none">
    <path fill-rule="evenodd" clip-rule="evenodd" d="M11.8591 6.91055L11.3249 7.42221L11.4499 8.14055C11.4958 8.44302 11.2933 8.72219 10.9983 8.76886C10.8866 8.78719 10.7649 8.76886 10.6591 8.71469L9.96658 8.35386L9.34242 8.71469C9.26492 8.75636 9.17825 8.77719 9.09158 8.77719C9.03658 8.77719 8.98242 8.76886 8.92825 8.75219C8.78908 8.70969 8.67492 8.61386 8.60742 8.48469C8.55242 8.38719 8.53158 8.26472 8.55075 8.14472L8.67742 7.42388L8.14739 6.91472C8.04239 6.81472 7.98406 6.67887 7.98073 6.53387C7.97823 6.38971 8.03239 6.25138 8.13323 6.14722C8.21823 6.05972 8.33239 6.00138 8.45409 5.98638L9.22408 5.87555L9.51325 5.22638C9.65408 4.95388 9.98158 4.84805 10.2533 4.98805C10.3508 5.03888 10.4308 5.11805 10.4849 5.21722L10.4883 5.22555L10.8358 5.91804L11.5533 5.98722C11.6941 6.00638 11.8224 6.08055 11.9108 6.19638C11.9983 6.31222 12.0349 6.45471 12.0149 6.59887C12.0024 6.70887 11.9466 6.82305 11.8591 6.91055ZM18.1008 4.53472C18.0658 4.21888 17.7983 3.97971 17.4799 3.97971H15.4274C15.4558 3.51304 15.4583 3.20221 15.4583 3.13804C15.4583 2.90805 15.2724 2.72137 15.0416 2.72137H4.95823C4.84739 2.72137 4.74156 2.76555 4.66323 2.84387C4.58489 2.92138 4.54156 3.02804 4.54156 3.13887C4.54156 3.20304 4.54406 3.51387 4.57239 3.97971H2.51989C2.20156 3.97971 1.93406 4.21888 1.89906 4.53472C1.88239 4.67972 1.52989 8.10221 4.15906 9.83136C4.26489 9.90136 4.38323 9.93469 4.50156 9.93469C4.70489 9.93469 4.90406 9.83552 5.02489 9.65302C5.21406 9.36469 5.13489 8.97719 4.84573 8.78719C3.40739 7.84137 3.15823 6.11554 3.12906 5.22971H4.68989C5.01406 7.83721 6.05406 11.9914 9.37325 12.4614V13.9239H7.41989C7.23823 13.9239 7.07823 14.0414 7.02239 14.213L6.44156 16.0264H5.33239C4.98739 16.0264 4.70739 16.3064 4.70739 16.6514C4.70739 16.9964 4.98739 17.2764 5.33239 17.2764H14.7866C15.1316 17.2764 15.4116 16.9964 15.4116 16.6514C15.4116 16.3064 15.1316 16.0264 14.7866 16.0264H13.6766L13.0966 14.2139C13.0416 14.0414 12.8816 13.9239 12.6999 13.9239H10.6233V12.463C13.9499 11.9997 14.9883 7.83971 15.3116 5.22971H16.8708C16.8416 6.11554 16.5924 7.84137 15.1541 8.78719C14.8649 8.97719 14.7858 9.36469 14.9749 9.65302C15.0958 9.83552 15.2949 9.93469 15.4983 9.93469C15.6166 9.93469 15.7349 9.90136 15.8408 9.83136C18.4699 8.10221 18.1174 4.67972 18.1008 4.53472Z" fill="#FAC515"/>
</svg>