<svg viewBox="0 0 24 24" xmlns="http://www.w3.org/2000/svg"><path fill-rule="evenodd" clip-rule="evenodd" d="m14.23 8.292-.64.615.15.861a.658.658 0 0 1-.95.69l-.831-.433-.75.433a.63.63 0 0 1-.495.045.65.65 0 0 1-.386-.321.63.63 0 0 1-.068-.408l.15-.865-.634-.61a.645.645 0 0 1-.017-.921.66.66 0 0 1 .384-.194l.927-.134.348-.778a.655.655 0 0 1 1.165-.011l.005.009.417.831.861.084a.649.649 0 0 1 .366 1.107m7.491-2.85a.75.75 0 0 0-.746-.666h-2.463c.035-.561.038-.933.038-1.011a.5.5 0 0 0-.501-.5H5.95a.5.5 0 0 0-.501.501c0 .076.003.45.038 1.01H3.024a.75.75 0 0 0-.746.666c-.019.174-.443 4.281 2.712 6.356a.752.752 0 0 0 .825-1.252C4.088 9.411 3.79 7.339 3.754 6.277h1.874c.39 3.129 1.636 8.115 5.62 8.678v1.755H8.904a.5.5 0 0 0-.477.347l-.698 2.176H6.398a.75.75 0 0 0 0 1.5h11.345a.75.75 0 0 0 0-1.5h-1.332l-.696-2.175a.495.495 0 0 0-.476-.348h-2.491v-1.755c3.99-.555 5.238-5.547 5.625-8.679h1.872c-.036 1.062-.335 3.135-2.061 4.269a.75.75 0 1 0 .825 1.252c3.155-2.075 2.73-6.182 2.712-6.356" fill="#fAC515"/></svg>
