<svg xmlns="http://www.w3.org/2000/svg" width="16" height="16" viewBox="0 0 16 16" fill="none">
    <path fill-rule="evenodd" clip-rule="evenodd" d="M6.25249 1.50001C6.27911 1.50001 6.30606 1.50001 6.33335 1.50001H6.66668C6.94282 1.50001 7.16668 1.72387 7.16668 2.00001C7.16668 2.27615 6.94282 2.50001 6.66668 2.50001H6.33335C5.37478 2.50001 4.98349 2.50349 4.67192 2.5783C3.63591 2.82702 2.82702 3.63591 2.5783 4.67192C2.50349 4.98349 2.50001 5.37478 2.50001 6.33335V8.66668C2.50001 9.60835 2.5004 10.2845 2.54377 10.8153C2.58665 11.3402 2.66907 11.6787 2.80883 11.953C3.08047 12.4861 3.51391 12.9196 4.04704 13.1912C4.32132 13.331 4.65982 13.4134 5.18473 13.4563C5.71549 13.4996 6.39167 13.5 7.33335 13.5H9.66668C10.6252 13.5 11.0165 13.4965 11.3281 13.4217C12.3641 13.173 13.173 12.3641 13.4217 11.3281C13.4965 11.0165 13.5 10.6252 13.5 9.66668V9.33335C13.5 9.0572 13.7239 8.83335 14 8.83335C14.2762 8.83335 14.5 9.0572 14.5 9.33335V9.66668C14.5 9.69397 14.5 9.72092 14.5 9.74755C14.5001 10.6 14.5002 11.1197 14.3941 11.5616C14.0576 12.9632 12.9632 14.0576 11.5616 14.3941C11.1197 14.5002 10.6 14.5001 9.74755 14.5C9.72092 14.5 9.69397 14.5 9.66668 14.5H7.31096C6.39649 14.5 5.67953 14.5 5.1033 14.4529C4.51654 14.405 4.0318 14.3058 3.59305 14.0822C2.87176 13.7147 2.28534 13.1283 1.91782 12.407C1.69426 11.9682 1.59503 11.4835 1.54709 10.8967C1.50001 10.3205 1.50001 9.60353 1.50001 8.68905L1.50001 6.33335C1.50001 6.30606 1.50001 6.27911 1.50001 6.25249C1.49991 5.4 1.49984 4.88034 1.60593 4.43847C1.94244 3.03682 3.03682 1.94244 4.43847 1.60593C4.88034 1.49984 5.4 1.49991 6.25249 1.50001ZM9.50001 2.00001C9.50001 1.72387 9.72387 1.50001 10 1.50001H14C14.2762 1.50001 14.5 1.72387 14.5 2.00001V6.00001C14.5 6.27615 14.2762 6.50001 14 6.50001C13.7239 6.50001 13.5 6.27615 13.5 6.00001V3.20712L8.35357 8.35357C8.1583 8.54883 7.84172 8.54883 7.64646 8.35357C7.4512 8.1583 7.4512 7.84172 7.64646 7.64646L12.7929 2.50001H10C9.72387 2.50001 9.50001 2.27615 9.50001 2.00001Z" fill="#9AA4B2"/>
</svg>