<svg xmlns="http://www.w3.org/2000/svg" width="20" height="20" viewBox="0 0 20 20" fill="none">
    <g clip-path="url(#clip0_808_61392)">
        <path
            d="M18.3337 9.99984C18.3337 14.6022 14.6027 18.3332 10.0003 18.3332M18.3337 9.99984C18.3337 5.39746 14.6027 1.6665 10.0003 1.6665M18.3337 9.99984C18.3337 8.15889 14.6027 6.6665 10.0003 6.6665C5.39795 6.6665 1.66699 8.15889 1.66699 9.99984M18.3337 9.99984C18.3337 11.8408 14.6027 13.3332 10.0003 13.3332C5.39795 13.3332 1.66699 11.8408 1.66699 9.99984M10.0003 18.3332C5.39795 18.3332 1.66699 14.6022 1.66699 9.99984M10.0003 18.3332C11.8413 18.3332 13.3337 14.6022 13.3337 9.99984C13.3337 5.39746 11.8413 1.6665 10.0003 1.6665M10.0003 18.3332C8.15938 18.3332 6.66699 14.6022 6.66699 9.99984C6.66699 5.39746 8.15938 1.6665 10.0003 1.6665M1.66699 9.99984C1.66699 5.39746 5.39795 1.6665 10.0003 1.6665"
            stroke="currentColor" stroke-width="1.5" stroke-linecap="round" stroke-linejoin="round" />
    </g>
    <defs>
        <clipPath id="clip0_808_61392">
            <rect width="20" height="20" fill="white" />
        </clipPath>
    </defs>
</svg>