<svg viewBox="0 0 24 24" xmlns="http://www.w3.org/2000/svg"><path fill-rule="evenodd" clip-rule="evenodd" d="M15.99 3.75c-1.311-.018-2.54.427-3.366 1.667a.75.75 0 0 1-1.248 0c-.822-1.233-2.073-1.665-3.375-1.665-2.628 0-5.25 2.204-5.25 5.25 0 3.177 2.055 5.988 4.374 8.064a21 21 0 0 0 3.27 2.397c.474.277.88.486 1.191.622a5 5 0 0 0 .414.158l.051-.015q.131-.042.364-.143c.309-.135.716-.345 1.19-.622a21 21 0 0 0 3.27-2.397C19.196 14.991 21.25 12.18 21.25 9c0-3.036-2.616-5.211-5.262-5.25m-3.992.06c1.129-1.165 2.599-1.579 4.012-1.56 3.356.05 6.74 2.788 6.74 6.75 0 3.822-2.445 7.011-4.875 9.184a22.5 22.5 0 0 1-3.51 2.571c-.513.3-.972.537-1.347.702q-.28.124-.515.2c-.135.044-.321.093-.504.093s-.369-.05-.504-.093a6 6 0 0 1-.515-.2 14 14 0 0 1-1.345-.702 22.4 22.4 0 0 1-3.51-2.571C3.695 16.009 1.249 12.822 1.249 9c0-3.954 3.375-6.75 6.75-6.75 1.374 0 2.859.398 3.998 1.56"/></svg>