<svg xmlns="http://www.w3.org/2000/svg" width="20" height="20" viewBox="0 0 20 20" fill="none">
    <path fill-rule="evenodd" clip-rule="evenodd" d="M9.99999 2.29169C5.74279 2.29169 2.29166 5.74283 2.29166 10C2.29166 14.2572 5.74279 17.7084 9.99999 17.7084C14.2572 17.7084 17.7083 14.2572 17.7083 10C17.7083 5.74283 14.2572 2.29169 9.99999 2.29169ZM1.04166 10C1.04166 5.05247 5.05244 1.04169 9.99999 1.04169C14.9475 1.04169 18.9583 5.05247 18.9583 10C18.9583 14.9476 14.9475 18.9584 9.99999 18.9584C5.05244 18.9584 1.04166 14.9476 1.04166 10ZM9.99999 7.29169C9.42469 7.29169 8.95832 7.75806 8.95832 8.33335V8.75002C8.95832 9.0952 8.6785 9.37502 8.33332 9.37502C7.98815 9.37502 7.70832 9.0952 7.70832 8.75002V8.33335C7.70832 7.0677 8.73434 6.04169 9.99999 6.04169C11.2656 6.04169 12.2917 7.0677 12.2917 8.33335V8.43445C12.2917 9.06906 12.0396 9.67767 11.5908 10.1264L10.4419 11.2753C10.1979 11.5194 9.80212 11.5194 9.55805 11.2753C9.31397 11.0312 9.31397 10.6355 9.55805 10.3914L10.7069 9.24251C10.9213 9.0282 11.0417 8.73753 11.0417 8.43445V8.33335C11.0417 7.75806 10.5753 7.29169 9.99999 7.29169ZM8.95832 13.3334C8.95832 12.7581 9.42469 12.2917 9.99999 12.2917C10.5753 12.2917 11.0417 12.7581 11.0417 13.3334C11.0417 13.9087 10.5753 14.375 9.99999 14.375C9.42469 14.375 8.95832 13.9087 8.95832 13.3334Z" fill="#FCFCFD"/>
</svg>