<svg
  xmlns="http://www.w3.org/2000/svg"
  width="16"
  height="16"
  viewBox="0 0 16 16"
  fill="none"
>
  <path
    d="M7.99976 10.5335C9.39889 10.5335 10.5331 9.39925 10.5331 8.00013C10.5331 6.60101 9.39889 5.4668 7.99976 5.4668C6.60064 5.4668 5.46643 6.60101 5.46643 8.00013C5.46643 9.39925 6.60064 10.5335 7.99976 10.5335Z"
  />
  <path
    d="M11.1657 0.400146H4.83236C2.38832 0.400146 0.399658 2.38945 0.399658 4.83411V11.1674C0.399658 13.6115 2.38896 15.6001 4.83362 15.6001H11.167C13.611 15.6001 15.5997 13.6108 15.5997 11.1662V4.83285C15.5997 2.38881 13.6104 0.400146 11.1657 0.400146ZM7.99966 11.8001C5.90396 11.8001 4.19966 10.0958 4.19966 8.00015C4.19966 5.90445 5.90396 4.20015 7.99966 4.20015C10.0954 4.20015 11.7997 5.90445 11.7997 8.00015C11.7997 10.0958 10.0954 11.8001 7.99966 11.8001ZM12.433 4.20015C12.0834 4.20015 11.7997 3.91641 11.7997 3.56681C11.7997 3.21721 12.0834 2.93348 12.433 2.93348C12.7826 2.93348 13.0663 3.21721 13.0663 3.56681C13.0663 3.91641 12.7826 4.20015 12.433 4.20015Z"
  />
</svg>
