<svg xmlns="http://www.w3.org/2000/svg" width="20" height="20" viewBox="0 0 20 20" fill="none">
    <path fill-rule="evenodd" clip-rule="evenodd" d="M10.7866 10.7607C10.729 10.7757 10.672 10.7886 10.6146 10.7994C10.2084 10.8756 9.79153 10.8756 9.38531 10.7994C8.92665 10.7133 8.48937 10.4947 7.61483 10.0574L3.93691 8.21843C2.40155 7.45076 1.63388 7.06692 1.38753 6.5475C1.17315 6.0955 1.17315 5.5711 1.38753 5.11909C1.63388 4.59968 2.40155 4.21584 3.93691 3.44816L7.61483 1.60921C8.32744 1.2529 8.74972 1.04176 9.12982 0.929233C9.15791 0.920913 9.18578 0.913132 9.21352 0.905872C9.27108 0.890804 9.32808 0.877976 9.38541 0.867219C9.79164 0.791005 10.2085 0.791005 10.6147 0.867219C11.0734 0.953271 11.5107 1.17191 12.3852 1.60918L16.0631 3.44814C17.5985 4.21581 18.3662 4.59965 18.6125 5.11906C18.8269 5.57107 18.8269 6.09547 18.6125 6.54748C18.3662 7.06689 17.5985 7.45073 16.0631 8.21841L16.063 8.21843L12.3852 10.0574L12.3852 10.0574L12.3851 10.0574L12.3851 10.0574C11.7242 10.3879 11.313 10.5935 10.9536 10.7113M1.94618 10.2743C1.63744 10.1199 1.26202 10.2451 1.10765 10.5538C0.953282 10.8625 1.07842 11.238 1.38716 11.3923L6.14278 13.7701L6.2357 13.8166L6.23571 13.8166L6.23573 13.8166C7.45875 14.4283 8.18799 14.793 8.96276 14.9384C9.64827 15.067 10.3517 15.067 11.0372 14.9384C11.812 14.793 12.5413 14.4283 13.7643 13.8166L13.8572 13.7701L18.6128 11.3923C18.9216 11.238 19.0467 10.8625 18.8923 10.5538C18.738 10.2451 18.3626 10.1199 18.0538 10.2743L13.2982 12.6521C11.954 13.3242 11.3885 13.6006 10.8067 13.7098C10.2736 13.8098 9.72644 13.8098 9.19326 13.7098C8.61148 13.6006 8.04602 13.3242 6.7018 12.6521L1.94618 10.2743ZM1.94618 14.441C1.63744 14.2866 1.26202 14.4117 1.10765 14.7205C0.953282 15.0292 1.07842 15.4046 1.38716 15.559L6.14278 17.9368L6.2357 17.9833L6.23572 17.9833C7.45874 18.5949 8.18799 18.9597 8.96276 19.105C9.64827 19.2336 10.3517 19.2336 11.0372 19.105C11.812 18.9597 12.5413 18.5949 13.7643 17.9833L13.8572 17.9368L18.6128 15.559C18.9216 15.4046 19.0467 15.0292 18.8923 14.7205C18.738 14.4117 18.3626 14.2866 18.0538 14.441L13.2982 16.8188C11.954 17.4909 11.3885 17.7673 10.8067 17.8764C10.2736 17.9765 9.72644 17.9765 9.19326 17.8764C8.61148 17.7673 8.04602 17.4909 6.7018 16.8188L1.94618 14.441Z" fill="#3CCB7F"/>
</svg>