<svg xmlns="http://www.w3.org/2000/svg" width="20" height="20" viewBox="0 0 20 20" fill="none">
  <path fill-rule="evenodd" clip-rule="evenodd" d="M6.97249 1.04169L8.33332 1.04169C8.6785 1.04169 8.95832 1.32151 8.95832 1.66669C8.95832 2.01187 8.6785 2.29169 8.33332 2.29169H6.99999C6.05626 2.29169 5.38604 2.29217 4.86156 2.33503C4.34437 2.37728 4.02416 2.4576 3.77043 2.58688C3.26083 2.84653 2.8465 3.26086 2.58685 3.77046C2.45757 4.02419 2.37725 4.3444 2.33499 4.86159C2.29214 5.38607 2.29166 6.05629 2.29166 7.00002V13C2.29166 13.9438 2.29214 14.614 2.33499 15.1385C2.37725 15.6556 2.45757 15.9759 2.58685 16.2296C2.8465 16.7392 3.26083 17.1535 3.77043 17.4132C4.02416 17.5424 4.34437 17.6228 4.86156 17.665C5.38604 17.7079 6.05626 17.7084 6.99999 17.7084H8.33332C8.6785 17.7084 8.95832 17.9882 8.95832 18.3334C8.95832 18.6785 8.6785 18.9584 8.33332 18.9584H6.97247C6.06236 18.9584 5.34112 18.9584 4.75977 18.9109C4.16528 18.8623 3.66226 18.761 3.20294 18.5269C2.45814 18.1474 1.85259 17.5419 1.47309 16.7971C1.23906 16.3378 1.13772 15.8347 1.08915 15.2402C1.04165 14.6589 1.04165 13.9376 1.04166 13.0275V6.97252C1.04165 6.0624 1.04165 5.34115 1.08915 4.7598C1.13772 4.16531 1.23906 3.66229 1.47309 3.20297C1.85259 2.45817 2.45814 1.85262 3.20294 1.47312C3.66226 1.23909 4.16528 1.13775 4.75977 1.08918C5.34112 1.04168 6.06237 1.04168 6.97249 1.04169ZM14.558 6.22475C14.8021 5.98067 15.1979 5.98067 15.4419 6.22475L18.7753 9.55808C19.0193 9.80216 19.0193 10.1979 18.7753 10.442L15.4419 13.7753C15.1979 14.0194 14.8021 14.0194 14.558 13.7753C14.314 13.5312 14.314 13.1355 14.558 12.8914L16.8244 10.625H8.33332C7.98814 10.625 7.70832 10.3452 7.70832 10C7.70832 9.65484 7.98814 9.37502 8.33332 9.37502H16.8244L14.558 7.10863C14.314 6.86455 14.314 6.46882 14.558 6.22475Z" fill="#FCFCFD"/>
</svg>
