<svg xmlns="http://www.w3.org/2000/svg" width="16" height="16" viewBox="0 0 16 16" fill="none">
    <path d="M2.99998 6.33331C2.08331 6.33331 1.33331 7.08331 1.33331 7.99998C1.33331 8.91665 2.08331 9.66665 2.99998 9.66665C3.91665 9.66665 4.66665 8.91665 4.66665 7.99998C4.66665 7.08331 3.91665 6.33331 2.99998 6.33331Z" fill="#EEF2F6"/>
    <path d="M13 6.33331C12.0833 6.33331 11.3333 7.08331 11.3333 7.99998C11.3333 8.91665 12.0833 9.66665 13 9.66665C13.9166 9.66665 14.6666 8.91665 14.6666 7.99998C14.6666 7.08331 13.9166 6.33331 13 6.33331Z" fill="#EEF2F6"/>
    <path d="M6.33331 7.99998C6.33331 7.08331 7.08331 6.33331 7.99998 6.33331C8.91665 6.33331 9.66665 7.08331 9.66665 7.99998C9.66665 8.91665 8.91665 9.66665 7.99998 9.66665C7.08331 9.66665 6.33331 8.91665 6.33331 7.99998Z" fill="#EEF2F6"/>
</svg>