<svg xmlns="http://www.w3.org/2000/svg" width="20" height="20" viewBox="0 0 20 20" fill="none">
    <path fill-rule="evenodd" clip-rule="evenodd" d="M7.6119 0.853391C8.0803 0.698039 8.58634 0.698039 9.05474 0.853391C9.29856 0.934257 9.50739 1.06252 9.71389 1.216C9.9109 1.36243 10.1357 1.55512 10.4032 1.78443L10.4192 1.79813C10.8746 2.18846 11.0018 2.28823 11.1298 2.34229C11.2935 2.41149 11.4723 2.43763 11.649 2.41821C11.787 2.40305 11.9375 2.34389 12.4856 2.1003L14.7462 1.09562C14.9395 1.00969 15.1632 1.0274 15.3406 1.14269C15.518 1.25798 15.625 1.45518 15.625 1.66675V9.37508H15.692C16.1372 9.37507 16.5087 9.37506 16.8122 9.39986C17.1288 9.42573 17.426 9.48165 17.7071 9.62486C18.1383 9.84457 18.4888 10.1951 18.7085 10.6264C18.8517 10.9074 18.9077 11.2046 18.9335 11.5212C18.9583 11.8247 18.9583 12.1962 18.9583 12.6414V16.6667C18.9583 17.9324 17.9323 18.9584 16.6667 18.9584H6.97247C6.06236 18.9584 5.34112 18.9584 4.75977 18.9109C4.16528 18.8624 3.66226 18.761 3.20294 18.527C2.45814 18.1475 1.85259 17.5419 1.47309 16.7971C1.23906 16.3378 1.13772 15.8348 1.08915 15.2403C1.04165 14.659 1.04165 13.9377 1.04166 13.0276L1.04166 1.66675C1.04166 1.45518 1.14869 1.25798 1.32609 1.14269C1.50348 1.0274 1.72716 1.00969 1.92049 1.09562L4.18103 2.1003C4.72912 2.34389 4.87963 2.40305 5.01766 2.41821C5.19438 2.43763 5.37313 2.41149 5.53689 2.34229C5.6648 2.28823 5.79207 2.18846 6.24746 1.79813L6.26341 1.78445C6.53094 1.55513 6.75574 1.36244 6.95276 1.216C7.15926 1.06252 7.36809 0.934257 7.6119 0.853391ZM7.06095 2.7472C7.03933 2.76573 7.018 2.78404 6.99694 2.80212C6.63668 3.11139 6.35411 3.35397 6.02347 3.4937C5.66319 3.64595 5.26994 3.70345 4.88115 3.66074C4.52434 3.62154 4.18414 3.47003 3.75041 3.27686C3.72506 3.26556 3.69938 3.25413 3.67336 3.24256L2.29166 2.62847V13.0001C2.29166 13.9438 2.29214 14.614 2.33499 15.1385C2.37725 15.6557 2.45757 15.9759 2.58685 16.2296C2.8465 16.7392 3.26083 17.1536 3.77043 17.4132C4.02416 17.5425 4.34437 17.6228 4.86156 17.6651C5.38604 17.7079 6.05626 17.7084 6.99999 17.7084H14.6249C14.4651 17.3959 14.375 17.0418 14.375 16.6667V2.62847L12.9933 3.24256C12.9673 3.25413 12.9416 3.26556 12.9162 3.27686C12.4825 3.47003 12.1423 3.62154 11.7855 3.66074C11.3967 3.70345 11.0035 3.64595 10.6432 3.4937C10.3125 3.35397 10.03 3.11139 9.66971 2.80212C9.64864 2.78404 9.62732 2.76573 9.6057 2.7472C9.31804 2.50063 9.12619 2.33665 8.96822 2.21924C8.81583 2.10597 8.72854 2.06216 8.66124 2.03984C8.44833 1.96922 8.21832 1.96922 8.00541 2.03984C7.93811 2.06216 7.85082 2.10597 7.69843 2.21924C7.54046 2.33665 7.34861 2.50063 7.06095 2.7472ZM16.6667 17.7084C17.242 17.7084 17.7083 17.242 17.7083 16.6667V12.6667C17.7083 12.1897 17.7078 11.8695 17.6877 11.623C17.6681 11.3837 17.6332 11.2693 17.5948 11.1938C17.4949 10.9978 17.3356 10.8385 17.1396 10.7386C17.0641 10.7002 16.9497 10.6653 16.7104 10.6457C16.4639 10.6256 16.1437 10.6251 15.6667 10.6251H15.625V16.6667C15.625 17.242 16.0914 17.7084 16.6667 17.7084ZM5.20832 7.50008C5.20832 7.1549 5.48814 6.87508 5.83332 6.87508H9.16666C9.51183 6.87508 9.79166 7.1549 9.79166 7.50008C9.79166 7.84526 9.51183 8.12508 9.16666 8.12508H5.83332C5.48814 8.12508 5.20832 7.84526 5.20832 7.50008ZM5.20832 10.8334C5.20832 10.4882 5.48814 10.2084 5.83332 10.2084H10.8333C11.1785 10.2084 11.4583 10.4882 11.4583 10.8334C11.4583 11.1786 11.1785 11.4584 10.8333 11.4584H5.83332C5.48814 11.4584 5.20832 11.1786 5.20832 10.8334ZM5.20832 14.1667C5.20832 13.8216 5.48814 13.5417 5.83332 13.5417H10.8333C11.1785 13.5417 11.4583 13.8216 11.4583 14.1667C11.4583 14.5119 11.1785 14.7917 10.8333 14.7917H5.83332C5.48814 14.7917 5.20832 14.5119 5.20832 14.1667Z" fill="#FCFCFD"/>
</svg>