<svg xmlns="http://www.w3.org/2000/svg" width="20" height="20" viewBox="0 0 20 20" fill="none">
    <path fill-rule="evenodd" clip-rule="evenodd" d="M10 3.125C6.20305 3.125 3.12501 6.20304 3.12501 10C3.12501 10.4844 3.17502 10.9565 3.26994 11.4116C3.55258 12.7666 4.23436 13.9752 5.18664 14.909C6.93321 14.5128 9.11593 13.6377 11.3542 12.3455C13.5936 11.0525 15.4433 9.59911 16.6594 8.28443C16.3166 6.94963 15.5825 5.77054 14.5852 4.87725C13.3682 3.78717 11.7622 3.125 10 3.125ZM16.8733 9.84607C15.6 11.0607 13.9152 12.3102 11.9792 13.428C10.0424 14.5462 8.11743 15.3806 6.42884 15.8759C7.46978 16.5098 8.69236 16.875 10 16.875C13.797 16.875 16.875 13.797 16.875 10C16.875 9.94855 16.8744 9.89724 16.8733 9.84607ZM4.81747 16.2578C6.22388 17.424 8.0299 18.125 10 18.125C14.4873 18.125 18.125 14.4873 18.125 10C18.125 9.53686 18.0862 9.08235 18.0115 8.63966C18.558 7.98511 18.9778 7.33698 19.2176 6.72615C19.483 6.05032 19.5646 5.31633 19.2015 4.6875C18.8383 4.05847 18.1616 3.76212 17.4433 3.65409C16.7943 3.55647 16.0228 3.59612 15.1826 3.7422C13.7763 2.5764 11.9694 1.875 10 1.875C5.5127 1.875 1.87501 5.51269 1.87501 10C1.87501 10.4631 1.91382 10.9176 1.98848 11.3603C1.44205 12.0149 1.02218 12.663 0.782341 13.2738C0.516975 13.9497 0.435406 14.6837 0.798468 15.3125C1.16538 15.948 1.85206 16.2439 2.57945 16.3493C3.22317 16.4425 3.98621 16.4023 4.81747 16.2578ZM3.70464 15.1368C3.1575 14.4669 2.71512 13.7082 2.40248 12.8855C2.1981 13.1922 2.04599 13.4757 1.94586 13.7307C1.74755 14.2357 1.78866 14.5276 1.881 14.6875C1.97433 14.8492 2.21076 15.0328 2.75863 15.1122C3.02683 15.151 3.34358 15.1601 3.70464 15.1368ZM16.2955 4.86324C16.664 4.83944 16.9861 4.84938 17.2574 4.89019C17.7943 4.97094 18.0266 5.15251 18.119 5.3125C18.2113 5.47244 18.2524 5.76425 18.0541 6.26931C17.954 6.52429 17.8019 6.80775 17.5975 7.11447C17.2848 6.29149 16.8424 5.53278 16.2955 4.86324Z" fill="#FCFCFD"/>
</svg>