<svg xmlns="http://www.w3.org/2000/svg" width="20" height="20" viewBox="0 0 20 20" fill="none">
    <path fill-rule="evenodd" clip-rule="evenodd" d="M0.832428 9.99993C0.832428 4.93657 4.93648 0.83252 9.99985 0.83252C15.0632 0.83252 19.1673 4.93657 19.1673 9.99993C19.1673 15.0623 15.0632 19.1673 9.99985 19.1673C4.93643 19.1673 0.832428 15.0623 0.832428 9.99993ZM9.99985 2.03252C5.59922 2.03252 2.03243 5.59931 2.03243 9.99993C2.03243 12.3912 3.08611 14.5368 4.75465 15.9973C4.99459 15.4125 5.39589 14.8511 5.98762 14.3881C6.89416 13.6788 8.20378 13.2337 9.97072 13.2337C11.7552 13.2337 13.073 13.6807 13.9818 14.3962C14.5769 14.8646 14.9768 15.433 15.2134 16.0248C16.9002 14.5638 17.9673 12.4063 17.9673 9.99993C17.9673 5.59931 14.4004 2.03252 9.99985 2.03252ZM9.99985 17.9673C8.44314 17.9673 6.99076 17.5209 5.76371 16.7491C5.90098 16.2486 6.2033 15.743 6.72708 15.3332C7.37426 14.8268 8.40331 14.4337 9.97072 14.4337C11.5576 14.4337 12.5924 14.8296 13.2396 15.339C13.7646 15.7523 14.0649 16.2635 14.1989 16.7722C12.9797 17.5298 11.5409 17.9673 9.99985 17.9673ZM7.43535 8.4071C7.43535 7.00579 8.57157 5.87005 9.97333 5.87005C11.3749 5.87005 12.5104 7.00557 12.5104 8.4071C12.5104 9.80863 11.3749 10.9442 9.97333 10.9442C8.57158 10.9442 7.43535 9.80841 7.43535 8.4071ZM9.97333 4.67005C7.9093 4.67005 6.23535 6.34258 6.23535 8.4071C6.23535 10.4716 7.90928 12.1442 9.97333 12.1442C12.0376 12.1442 13.7104 10.4714 13.7104 8.4071C13.7104 6.3428 12.0376 4.67005 9.97333 4.67005Z" fill="white"/>
</svg>
