<svg xmlns="http://www.w3.org/2000/svg" width="16" height="16" viewBox="0 0 16 16" fill="none">
    <path fill-rule="evenodd" clip-rule="evenodd"
        d="M7.33325 1.8335C4.29569 1.8335 1.83325 4.29593 1.83325 7.3335C1.83325 10.3711 4.29569 12.8335 7.33325 12.8335C8.85217 12.8335 10.2265 12.2184 11.2223 11.2226C12.2182 10.2267 12.8333 8.85242 12.8333 7.3335C12.8333 4.29593 10.3708 1.8335 7.33325 1.8335ZM0.833252 7.3335C0.833252 3.74365 3.7434 0.833496 7.33325 0.833496C10.9231 0.833496 13.8333 3.74365 13.8333 7.3335C13.8333 8.94825 13.2439 10.4261 12.2695 11.5626L14.3535 13.6466C14.5487 13.8419 14.5487 14.1585 14.3535 14.3537C14.1582 14.549 13.8416 14.549 13.6464 14.3537L11.5623 12.2697C10.4259 13.2442 8.94801 13.8335 7.33325 13.8335C3.7434 13.8335 0.833252 10.9233 0.833252 7.3335Z"
        fill="currentColor" />
</svg>