<svg xmlns="http://www.w3.org/2000/svg" width="20" height="20" viewBox="0 0 20 20" fill="none">
  <path fill-rule="evenodd" clip-rule="evenodd" d="M5.64849 1.2058C6.64095 0.632807 7.90411 0.881028 8.60595 1.78697L8.98273 2.27331C9.19288 2.54458 9.56329 2.70833 10 2.70833C10.4368 2.70833 10.8073 2.54456 11.0175 2.27325L11.3941 1.78711C12.0959 0.881173 13.3591 0.632954 14.3515 1.20595L15.4401 1.83447C16.4326 2.40746 16.8492 3.6255 16.4156 4.68628L16.1829 5.25548C16.0527 5.57386 16.0957 5.97361 16.314 6.35068C16.5342 6.73079 16.8629 6.97174 17.2011 7.01784L17.8096 7.10083C18.9451 7.25567 19.7917 8.22549 19.7917 9.37149V10.6285C19.7917 11.7745 18.9451 12.7443 17.8096 12.8992L17.201 12.9822C16.8629 13.0283 16.5342 13.2692 16.314 13.6493C16.0957 14.0264 16.0527 14.4261 16.1829 14.7444L16.4156 15.3137C16.8492 16.3744 16.4326 17.5925 15.4402 18.1655L14.3515 18.794C13.3591 19.367 12.0959 19.1188 11.3941 18.2128L11.0175 17.7268C10.8073 17.4554 10.4368 17.2917 10 17.2917C9.56326 17.2917 9.19281 17.4554 8.98264 17.7267L8.60594 18.213C7.9041 19.1189 6.64094 19.3671 5.64848 18.7941L4.55986 18.1656C3.5674 17.5926 3.15078 16.3746 3.58443 15.3138L3.81715 14.7445C3.9473 14.4262 3.90435 14.0264 3.68598 13.6493C3.46585 13.2692 3.13708 13.0283 2.79895 12.9822L2.19037 12.8992C1.05489 12.7443 0.208344 11.7745 0.208344 10.6285V9.37148C0.208344 8.22549 1.05489 7.25567 2.19037 7.10083L2.79892 7.01785C3.13707 6.97174 3.46585 6.73078 3.68599 6.35065C3.90437 5.97356 3.94732 5.57379 3.81716 5.25539L3.58445 4.68613C3.1508 3.62535 3.56741 2.40732 4.55987 1.83432L5.64849 1.2058ZM10 3.95833C9.2751 3.95833 8.49583 3.68588 7.99457 3.03885L7.61779 2.5525C7.29878 2.14071 6.72461 2.02788 6.27349 2.28834L5.18487 2.91685C4.73376 3.17731 4.54439 3.73096 4.7415 4.21313L4.97421 4.78239C5.28386 5.53984 5.13178 6.34839 4.76769 6.97709C4.40588 7.60186 3.78027 8.1456 2.96781 8.25639L2.35927 8.33937C1.84314 8.40975 1.45834 8.85058 1.45834 9.37148V10.6285C1.45834 11.1494 1.84314 11.5902 2.35927 11.6606L2.96784 11.7436C3.78028 11.8544 4.40588 12.3981 4.76769 13.0229C5.13176 13.6516 5.28384 14.4601 4.9742 15.2175L4.74148 15.7868C4.54437 16.269 4.73374 16.8226 5.18486 17.0831L6.27348 17.7116C6.7246 17.9721 7.29876 17.8592 7.61778 17.4474L7.99448 16.9612C8.49576 16.3141 9.27507 16.0417 10 16.0417C10.725 16.0417 11.5044 16.3141 12.0057 16.9613L12.3822 17.4473C12.7013 17.8591 13.2754 17.9719 13.7265 17.7115L14.8152 17.0829C15.2663 16.8225 15.4556 16.2688 15.2585 15.7867L15.0258 15.2175C14.7162 14.46 14.8683 13.6515 15.2323 13.0229C15.5941 12.3981 16.2197 11.8544 17.0321 11.7436L17.6408 11.6606C18.1569 11.5902 18.5417 11.1494 18.5417 10.6285V9.37149C18.5417 8.85058 18.1569 8.40975 17.6408 8.33937L17.0322 8.25638C16.2197 8.1456 15.5941 7.60187 15.2323 6.97711C14.8683 6.34843 14.7162 5.53991 15.0258 4.78248L15.2585 4.21328C15.4556 3.73111 15.2663 3.17745 14.8151 2.917L13.7265 2.28848C13.2754 2.02803 12.7012 2.14086 12.3822 2.55265L12.0056 3.03878C11.5043 3.68586 10.725 3.95833 10 3.95833ZM10 8.12497C8.96448 8.12497 8.12501 8.96443 8.12501 9.99997C8.12501 11.0355 8.96448 11.875 10 11.875C11.0355 11.875 11.875 11.0355 11.875 9.99997C11.875 8.96443 11.0355 8.12497 10 8.12497ZM6.87501 9.99997C6.87501 8.27408 8.27412 6.87497 10 6.87497C11.7259 6.87497 13.125 8.27408 13.125 9.99997C13.125 11.7259 11.7259 13.125 10 13.125C8.27412 13.125 6.87501 11.7259 6.87501 9.99997Z" fill="#FCFCFD"/>
</svg>