<svg xmlns="http://www.w3.org/2000/svg" width="20" height="20" viewBox="0 0 20 20" fill="none">
    <path d="M9.99996 1.0415C5.05241 1.0415 1.04163 5.05229 1.04163 9.99984C1.04163 14.9474 5.05241 18.9582 9.99996 18.9582C14.9475 18.9582 18.9583 14.9474 18.9583 9.99984C18.9583 5.05229 14.9475 1.0415 9.99996 1.0415Z" fill="#FCFCFD"/>
    <path fill-rule="evenodd" clip-rule="evenodd" d="M12.799 7.20131C13.043 7.44539 13.043 7.84111 12.799 8.08519L10.8839 10.0003L12.799 11.9154C13.043 12.1594 13.043 12.5552 12.799 12.7992C12.5549 13.0433 12.1592 13.0433 11.9151 12.7992L10 10.8842L8.08492 12.7992C7.84084 13.0433 7.44511 13.0433 7.20104 12.7992C6.95696 12.5552 6.95696 12.1594 7.20104 11.9154L9.11612 10.0003L7.20104 8.08519C6.95696 7.84111 6.95696 7.44539 7.20104 7.20131C7.44511 6.95723 7.84084 6.95723 8.08492 7.20131L10 9.11639L11.9151 7.20131C12.1592 6.95723 12.5549 6.95723 12.799 7.20131Z" fill="#0A0B0E"/>
</svg>