<svg width="21" height="20" viewBox="0 0 21 20" fill="none" xmlns="http://www.w3.org/2000/svg">
<g id="trash">
<path id="Vector" fill-rule="evenodd" clip-rule="evenodd" d="M9.35084 1.04177L9.44151 1.04186H11.5585L11.6491 1.04177C12.0763 1.04114 12.4512 1.04058 12.7853 1.17197C13.0774 1.28685 13.336 1.47324 13.5374 1.71403C13.7677 1.98941 13.8857 2.34527 14.0202 2.75072L14.0488 2.83677L14.2838 3.54186H17.1667H18.8333C19.1785 3.54186 19.4583 3.82169 19.4583 4.16686C19.4583 4.51204 19.1785 4.79186 18.8333 4.79186H17.756L17.2525 13.3501L17.251 13.3768L17.251 13.3768V13.3769C17.2003 14.2378 17.1601 14.921 17.0836 15.4712C17.0052 16.0346 16.8828 16.5096 16.6403 16.9407C16.2461 17.6416 15.6477 18.2058 14.9249 18.5582C14.4803 18.775 13.9989 18.8692 13.4319 18.9144C12.878 18.9585 12.1936 18.9585 11.3311 18.9585H11.3045H9.69548H9.66889C8.8064 18.9585 8.12195 18.9585 7.56812 18.9144C7.00103 18.8692 6.51972 18.775 6.07507 18.5582C5.35224 18.2058 4.75388 17.6416 4.35965 16.9407C4.11713 16.5096 3.99479 16.0346 3.91639 15.4712C3.83983 14.9209 3.79964 14.2376 3.74899 13.3766L3.74743 13.3501L3.24401 4.79186H2.16666C1.82148 4.79186 1.54166 4.51204 1.54166 4.16686C1.54166 3.82169 1.82148 3.54186 2.16666 3.54186H3.83332H6.71618L6.95121 2.83677L6.9798 2.75073C7.11428 2.34528 7.23231 1.98942 7.4626 1.71403C7.66396 1.47324 7.92256 1.28685 8.21468 1.17197C8.54875 1.04058 8.92367 1.04114 9.35084 1.04177ZM12.9662 3.54186H8.0338L8.13707 3.23205C8.31785 2.6897 8.36389 2.5848 8.42149 2.51592C8.48861 2.43566 8.57481 2.37353 8.67219 2.33523C8.75574 2.30237 8.86982 2.29186 9.44151 2.29186H11.5585C12.1302 2.29186 12.2442 2.30237 12.3278 2.33523C12.4252 2.37353 12.5114 2.43566 12.5785 2.51592C12.6361 2.5848 12.6821 2.6897 12.8629 3.23205L12.9662 3.54186ZM9.45832 8.33335C9.45832 7.98818 9.1785 7.70835 8.83332 7.70835C8.48815 7.70835 8.20832 7.98818 8.20832 8.33335V14.1667C8.20832 14.5119 8.48815 14.7917 8.83332 14.7917C9.1785 14.7917 9.45832 14.5119 9.45832 14.1667V8.33335ZM12.7917 8.33335C12.7917 7.98818 12.5118 7.70835 12.1667 7.70835C11.8215 7.70835 11.5417 7.98818 11.5417 8.33335V11.6667C11.5417 12.0119 11.8215 12.2917 12.1667 12.2917C12.5118 12.2917 12.7917 12.0119 12.7917 11.6667V8.33335Z" fill="white"/>
</g>
</svg>
