<svg xmlns="http://www.w3.org/2000/svg" width="20" height="20" viewBox="0 0 20 20" fill="none">
    <path fill-rule="evenodd" clip-rule="evenodd" d="M17.9167 9.99998C17.9167 5.62826 14.3725 2.08331 10 2.08331C5.62747 2.08331 2.08333 5.62826 2.08333 9.99998C2.08333 11.6095 2.56351 13.1067 3.38843 14.3563C4.02327 13.6451 5.22006 12.8719 7.42236 12.8719C8.84119 12.8719 9.84359 13.1895 10.5478 13.6047C10.7356 13.7155 10.7036 13.9869 10.5104 14.0881C8.91119 14.9264 8.14196 16.3285 7.98021 17.5942C7.97789 17.6145 7.97558 17.6348 7.97378 17.655C8.22473 17.7213 8.48056 17.7755 8.74061 17.817C8.98229 16.0645 10.468 14.2368 13.9341 14.2368C14.8693 14.2368 15.7044 14.3695 16.4218 14.631C17.3624 13.3289 17.9167 11.7292 17.9167 9.99998ZM10 0.833313C15.063 0.833313 19.1667 4.93799 19.1667 9.99998C19.1667 15.0629 15.063 19.1666 10 19.1666C4.93702 19.1666 0.833334 15.0629 0.833334 9.99998C0.833334 4.93799 4.93702 0.833313 10 0.833313ZM9.94775 8.63738C9.94775 10.0184 8.82806 11.1381 7.44701 11.1381C6.06597 11.1381 4.94629 10.0184 4.94629 8.63738C4.94629 7.25634 6.06597 6.13666 7.44701 6.13666C8.82806 6.13666 9.94775 7.25634 9.94775 8.63738ZM13.9195 12.604C14.9482 12.604 15.7823 11.7699 15.7823 10.7412C15.7823 9.71242 14.9482 8.87836 13.9195 8.87836C12.8906 8.87836 12.0566 9.71242 12.0566 10.7412C12.0566 11.7699 12.8906 12.604 13.9195 12.604Z" fill="#528BFF"/>
</svg>